<?xml version="1.0" encoding="UTF-8"?>
<svg width="161px" height="56px" viewBox="0 0 161 56" version="1.1" xmlns="http://www.w3.org/2000/svg" xmlns:xlink="http://www.w3.org/1999/xlink">
    <title>Logo/Wh/NatWest-Hor</title>
    <defs>
        <linearGradient x1="24.9698432%" y1="41.6585069%" x2="75.0033508%" y2="58.333757%" id="linearGradient-1">
            <stop stop-color="#C20000" stop-opacity="0.1" offset="0%"></stop>
            <stop stop-color="#C20000" stop-opacity="0.2" offset="24%"></stop>
            <stop stop-color="#C20000" stop-opacity="0.44" offset="72%"></stop>
            <stop stop-color="#C20000" stop-opacity="0.6" offset="100%"></stop>
        </linearGradient>
        <linearGradient x1="71.1014694%" y1="35.4890988%" x2="36.2276419%" y2="59.4924581%" id="linearGradient-2">
            <stop stop-color="#C20000" stop-opacity="0.1" offset="0%"></stop>
            <stop stop-color="#C20000" stop-opacity="0.2" offset="20%"></stop>
            <stop stop-color="#C20000" stop-opacity="0.44" offset="61%"></stop>
            <stop stop-color="#C20000" stop-opacity="0.7" offset="100%"></stop>
        </linearGradient>
        <linearGradient x1="42.4615487%" y1="29.3365042%" x2="63.7927055%" y2="70.6631427%" id="linearGradient-3">
            <stop stop-color="#C20000" stop-opacity="0.1" offset="0%"></stop>
            <stop stop-color="#C20000" stop-opacity="0.2" offset="20%"></stop>
            <stop stop-color="#C20000" stop-opacity="0.44" offset="61%"></stop>
            <stop stop-color="#C20000" stop-opacity="0.7" offset="100%"></stop>
        </linearGradient>
    </defs>
    <g id="Page-1" stroke="none" stroke-width="1" fill="none" fill-rule="evenodd">
        <g id="Logo/Wh/NatWest-Hor" fill-rule="nonzero">
            <g id="NatWest-Horizontal">
                <path d="M107.082825,24.41264 L107.082825,27.2048 L103.680241,27.2048 L103.680241,34.48144 C103.680241,35.77952 104.295126,36.03152 105.429693,36.03152 C106.092738,36.03152 106.592262,35.90384 106.829703,35.83104 L107.082825,35.7504 L107.082825,38.54928 L106.940584,38.584 C105.986337,38.82592 105.187772,38.90656 104.010644,38.90656 C103.195278,38.90656 100.537499,38.63776 100.537499,35.1512 L100.537499,27.2048 L98.5405255,27.2048 L98.5405255,27.01664 C98.5382855,26.88112 98.5382855,25.9224 98.5405255,25.02752 L98.5405255,24.41264 L100.537499,24.41264 L100.537499,20.83088 L103.680241,19.73104 L103.680241,24.41264 L107.082825,24.41264 L107.082825,24.41264 Z M128.188252,19.84752 L124.426146,38.6064 L121.231883,38.6064 L117.9077,25.54384 L114.528637,38.6064 L111.387015,38.6064 L107.453548,19.84752 L110.73293,19.84752 L113.282068,32.57632 L116.45057,19.84752 L119.508191,19.84752 C119.811713,21.03696 122.682293,32.4184 122.719254,32.56064 C122.741654,32.40944 124.977189,20.26416 125.05559,19.84752 L128.188252,19.84752 Z M131.445234,30.04064 C131.525875,28.70224 132.471162,26.95616 134.470375,26.95616 C136.639831,26.95616 137.300635,28.87248 137.372316,30.04064 L131.445234,30.04064 Z M134.611496,24.1584 C132.2158,24.1584 128.170332,25.71968 128.170332,31.57728 C128.170332,38.55264 133.71997,38.90656 134.832138,38.90656 C137.188634,38.90656 138.240322,38.41488 139.274089,37.93216 L139.38721,37.87952 L139.38721,34.91264 L139.088168,35.09184 C138.337762,35.56112 136.882872,36.08752 135.253261,36.08752 C131.954838,36.08752 131.488915,33.7288 131.446354,32.73536 L140.513937,32.73536 L140.531858,32.5752 C140.81858,30.61744 140.535218,27.8768 138.928006,26.01088 C137.866239,24.78224 136.411349,24.15728 134.612616,24.15728 M152.149698,34.65504 C152.149698,36.78304 150.298326,38.93456 146.774781,38.93456 C145.22805,38.93456 143.521158,38.5504 142.29475,37.95904 L142.183869,37.90416 L142.183869,34.85776 L142.475071,35.01568 C143.495398,35.56448 145.13061,36.148 146.69078,36.148 C148.11431,36.148 148.931916,35.6384 148.931916,34.74688 C148.931916,33.90912 148.430153,33.6504 147.191424,33.10272 L146.703101,32.8944 C146.103896,32.63568 145.579733,32.40496 144.716207,32.0096 C143.888521,31.63664 141.956508,30.76528 141.956508,28.17472 C141.956508,26.78144 143.026115,24.15952 147.040223,24.15952 C148.696714,24.15952 150.335286,24.6064 150.98153,24.91888 L151.095771,24.97488 L151.095771,27.96752 L150.804569,27.83088 C149.52328,27.19808 148.398792,26.90464 147.152224,26.90464 C146.69302,26.90464 145.17541,26.99648 145.17541,28.05712 C145.17541,28.8624 146.131897,29.28352 146.903582,29.63072 L147.052543,29.69344 C147.609187,29.93872 148.04599,30.14368 148.422313,30.29152 L148.826635,30.464 C151.243612,31.52128 152.147458,32.65024 152.147458,34.6528 M81.1647246,19.84304 L84.232426,19.84304 L84.232426,38.60192 L81.2498452,38.60192 L73.0625883,25.53712 L73.0625883,38.60192 L69.999367,38.60192 L69.999367,19.84304 L73.0581082,19.84304 L81.1636046,33.00752 L81.1636046,19.84304 L81.1647246,19.84304 Z M157.596296,27.20144 L157.596296,34.47808 C157.596296,35.78064 158.208941,36.02816 159.350229,36.02816 C159.997593,36.02816 160.493756,35.90048 160.743518,35.83216 L161,35.74704 L161,38.54592 L160.838719,38.58064 C159.899032,38.82256 159.101587,38.9032 157.922219,38.9032 C157.106853,38.9032 154.463635,38.6344 154.463635,35.14784 L154.463635,27.20144 L152.455461,27.20144 L152.455461,27.01328 C152.447621,26.87776 152.447621,25.91904 152.455461,25.02416 L152.455461,24.40928 L154.463635,24.40928 L154.463635,20.82752 L157.596296,19.72768 L157.596296,24.40928 L161,24.40928 L161,27.20144 L157.596296,27.20144 Z M94.5118575,34.46016 C94.151215,34.90368 93.0222471,36.07744 91.2649549,36.07744 C89.9142255,36.07744 89.0506995,35.30128 89.0506995,34.09952 C89.0506995,32.89776 90.0351863,32.15968 91.7510383,32.15968 L94.5118575,32.15968 L94.5118575,34.45904 L94.5118575,34.46016 Z M92.0915206,24.11136 C90.4966295,24.11136 88.9476588,24.388 87.8567712,24.86288 L87.7324503,24.9088 L87.7324503,27.7984 L88.0169323,27.65504 C88.7538974,27.29776 90.5190297,26.97296 91.6255974,26.97296 C94.3819366,26.97296 94.5040174,28.0224 94.5118575,29.38656 L91.565117,29.38656 C87.6630098,29.38656 85.8866775,31.83264 85.8866775,34.10064 C85.8866775,37.2624 88.401095,38.90432 90.8975923,38.90432 C92.5977642,38.90432 93.6684916,38.26704 94.5320176,37.50208 L94.5320176,38.60304 L97.6400392,38.60304 L97.6400392,29.01136 C97.6400392,24.58848 93.7580922,24.11136 92.0915206,24.11136" id="NatWest-Wordmark" fill="#FFFFFF"></path>
                <g id="NatWest-Brandmark">
                    <path d="M56.0003896,28 C56.0003896,53.9672 53.9675754,56 28.0001948,56 C2.03281414,56 0,53.9672 0,28 C0,2.0328 2.03281414,0 28.0001948,0 C53.9675754,0 56.0003896,2.0328 56.0003896,28 Z" id="Path" fill="#3C1053"></path>
                    <g id="Group" transform="translate(8.495259, 10.028480)">
                        <polygon id="Path" fill="#E90000" points="27.8691539 24.12704 16.7250763 24.12704 22.2937551 33.78256 33.4389526 33.78256 33.4411926 33.78256 33.4411926 33.78256"></polygon>
                        <polygon id="Path" fill="#C20000" points="33.4378326 14.4816 39.0098714 24.13152 33.4411926 33.78256 27.8691539 24.12704"></polygon>
                        <polygon id="Path" fill="#E90000" points="25.0769744 0.00112 25.0780945 0 13.9340169 0 8.36533819 9.64656 19.5082957 9.64656 19.5082957 9.64656"></polygon>
                        <polygon id="Path" fill="#C20000" points="19.5082957 9.64656 25.0803345 19.29984 30.6490132 9.65104 25.0769744 0"></polygon>
                        <polygon id="Path" fill="#E90000" points="11.1474375 24.12592 11.1474375 24.12592 16.7161163 14.48048 5.57203876 14.48048 0.00336002337 24.12592 0.00336002337 24.12592 0 24.1304"></polygon>
                        <polygon id="Path" fill="#C20000" points="16.7183563 33.78256 16.7149963 33.78256 5.57203876 33.78256 0 24.1304 0.00336002337 24.12592 11.1474375 24.12592"></polygon>
                    </g>
                    <polygon id="Path" fill="url(#linearGradient-1)" points="36.3554529 24.50896 33.5744736 29.3272 28.0024348 29.3272 28.0024348 29.3272 25.2203354 34.15552 36.364413 34.15552 41.9330917 24.50896"></polygon>
                    <polygon id="Path" fill="url(#linearGradient-2)" points="19.6572567 24.50896 25.2102554 24.50896 28.0024348 29.3272 28.0024348 29.3272 33.5744736 29.3272 28.0035548 19.67392 16.8605973 19.67392"></polygon>
                    <polygon id="Path" fill="url(#linearGradient-3)" points="27.9979548 38.97152 25.2203354 34.15552 28.0024348 29.3272 28.0024348 29.3272 25.2102554 24.50896 19.6426966 34.1544 25.2136154 43.81104"></polygon>
                </g>
            </g>
        </g>
    </g>
</svg>